<svg width="29" height="29" viewBox="0 0 29 29" fill="none" xmlns="http://www.w3.org/2000/svg">
<g id="Trash">
<path id="Vector" d="M24.4683 6.34375L4.53082 6.34376" stroke="#E16D65" stroke-width="1.8" stroke-linecap="round" stroke-linejoin="round"/>
<path id="Vector_2" d="M11.7812 11.7812V19.0312" stroke="#E16D65" stroke-width="1.8" stroke-linecap="round" stroke-linejoin="round"/>
<path id="Vector_3" d="M17.2188 11.7812V19.0312" stroke="#E16D65" stroke-width="1.8" stroke-linecap="round" stroke-linejoin="round"/>
<path id="Vector_4" d="M22.6562 6.34375V23.5625C22.6562 23.8029 22.5608 24.0334 22.3908 24.2033C22.2209 24.3733 21.9904 24.4688 21.75 24.4688H7.25C7.00965 24.4688 6.77914 24.3733 6.60918 24.2033C6.43923 24.0334 6.34375 23.8029 6.34375 23.5625V6.34375" stroke="#E16D65" stroke-width="1.8" stroke-linecap="round" stroke-linejoin="round"/>
<path id="Vector_5" d="M19.0312 6.34375V4.53125C19.0312 4.05055 18.8403 3.58953 18.5004 3.24962C18.1605 2.90971 17.6995 2.71875 17.2188 2.71875H11.7812C11.3005 2.71875 10.8395 2.90971 10.4996 3.24962C10.1597 3.58953 9.96875 4.05055 9.96875 4.53125V6.34375" stroke="#E16D65" stroke-width="1.8" stroke-linecap="round" stroke-linejoin="round"/>
</g>
</svg>
